<svg class="icon__2ea32" aria-hidden="true" role="img" xmlns="http://www.w3.org/2000/svg" width="24" height="24" fill="none" viewBox="0 0 24 24"><path fill="currentColor" fill-rule="evenodd" d="M16 4h.5v-.5a2.5 2.5 0 0 1 5 0V4h.5a1 1 0 0 1 1 1v4a1 1 0 0 1-1 1h-6a1 1 0 0 1-1-1V5a1 1 0 0 1 1-1Zm4-.5V4h-2v-.5a1 1 0 1 1 2 0Z" clip-rule="evenodd" class=""></path><path fill="currentColor" fill-rule="evenodd" d="M12.33 5.74a.5.5 0 0 1 .67.47V9a3 3 0 0 0 3 3h5.5c.28 0 .5.22.5.5v8c0 .83-.67 1.5-1.5 1.5h-.94a3 3 0 0 1-2.46-1.28 3.86 3.86 0 0 0-1.07-1.03l-2.36-.94a.92.92 0 0 0-1.23.63 2.92 2.92 0 0 1-3.55 2.12l-.62-.15A3 3 0 0 1 6 18.44V8.35c0-.2.13-.4.33-.47l6-2.14Zm-1.3 12.06L8 16.7v1.73a1 1 0 0 0 .76.97l.62.15c.5.13 1-.17 1.12-.67.1-.41.29-.78.53-1.1Z" clip-rule="evenodd" class=""></path><path fill="currentColor" d="M2 10c0-1.1.9-2 2-2h.5c.28 0 .5.22.5.5v7a.5.5 0 0 1-.5.5H4a2 2 0 0 1-2-2v-4Z" class=""></path></svg>