<svg xmlns="http://www.w3.org/2000/svg" height="15.6" width="22.271" viewBox="0 0 22.271 15.6"><g color="#000" font-weight="400" font-family="sans-serif" fill-rule="evenodd"><path d="M3.3 0A3.297 3.297 0 000 3.3v9c0 1.824 1.476 3.3 3.3 3.3h15.672c1.823 0 3.299-1.476 3.299-3.3v-9c0-1.824-1.476-3.3-3.3-3.3zm0 .5h15.672a2.787 2.787 0 012.797 2.8v9c0 1.556-1.242 2.8-2.797 2.8H3.299a2.787 2.787 0 01-2.797-2.8v-9C.502 1.743 1.744.5 3.299.5z" style="line-height:normal;font-variant-ligatures:normal;font-variant-position:normal;font-variant-caps:normal;font-variant-numeric:normal;font-variant-alternates:normal;font-feature-settings:normal;text-indent:0;text-align:start;text-decoration-line:none;text-decoration-style:solid;text-decoration-color:#000;text-transform:none;text-orientation:mixed;white-space:normal;shape-padding:0;isolation:auto;mix-blend-mode:normal;solid-color:#000;solid-opacity:1" overflow="visible"/><path d="M8.549 10.193a.25.25 0 00-.23.189 1.588 1.588 0 001.12 1.94 1.586 1.586 0 001.937-1.12.25.25 0 10-.482-.13 1.08 1.08 0 01-1.327.765 1.077 1.077 0 01-.765-1.324.25.25 0 00-.253-.32z" style="line-height:normal;font-variant-ligatures:normal;font-variant-position:normal;font-variant-caps:normal;font-variant-numeric:normal;font-variant-alternates:normal;font-feature-settings:normal;text-indent:0;text-align:start;text-decoration-line:none;text-decoration-style:solid;text-decoration-color:#000;text-transform:none;text-orientation:mixed;white-space:normal;shape-padding:0;isolation:auto;mix-blend-mode:normal;solid-color:#000;solid-opacity:1" overflow="visible"/><path d="M13.724 10.193a.25.25 0 01.23.189 1.59 1.59 0 01-1.122 1.94 1.586 1.586 0 01-1.938-1.12.25.25 0 11.482-.13c.156.58.747.921 1.327.765.58-.155.921-.744.766-1.324a.25.25 0 01.255-.32zM4.851 4.403a3.047 3.047 0 00-3.044 3.044 3.047 3.047 0 003.044 3.044 3.05 3.05 0 003.046-3.044 3.05 3.05 0 00-3.046-3.044zm0 .5a2.54 2.54 0 012.545 2.544A2.54 2.54 0 014.85 9.992a2.54 2.54 0 01-2.545-2.545 2.54 2.54 0 012.545-2.544zM17.42 4.403a3.047 3.047 0 00-3.045 3.044 3.047 3.047 0 003.044 3.044 3.047 3.047 0 003.044-3.044 3.047 3.047 0 00-3.044-3.044zm0 .5a2.54 2.54 0 012.544 2.544 2.54 2.54 0 01-2.545 2.545 2.54 2.54 0 01-2.544-2.545 2.54 2.54 0 012.544-2.544z" style="line-height:normal;font-variant-ligatures:normal;font-variant-position:normal;font-variant-caps:normal;font-variant-numeric:normal;font-variant-alternates:normal;font-feature-settings:normal;text-indent:0;text-align:start;text-decoration-line:none;text-decoration-style:solid;text-decoration-color:#000;text-transform:none;text-orientation:mixed;white-space:normal;shape-padding:0;isolation:auto;mix-blend-mode:normal;solid-color:#000;solid-opacity:1" overflow="visible"/></g><text font-family="'Helvetica Neue', Helvetica, Arial-Unicode, Arial, Sans-serif" font-weight="bold" font-size="5" y="36.029" x="-2.094">Created by Ahmad Arzaha</text><text font-family="'Helvetica Neue', Helvetica, Arial-Unicode, Arial, Sans-serif" font-weight="bold" font-size="5" y="41.029" x="-2.094">from the Noun Project</text></svg>