<svg xmlns="http://www.w3.org/2000/svg" height="7.973" width="18.657" viewBox="0 0 18.657 7.973"><path d="M6.742 5.79a.25.25 0 00-.23.189 1.588 1.588 0 001.12 1.94 1.586 1.586 0 001.937-1.12.25.25 0 10-.482-.13 1.08 1.08 0 01-1.327.765 1.077 1.077 0 01-.765-1.324.25.25 0 00-.253-.32z"/><path d="M11.917 5.79a.25.25 0 01.23.189 1.59 1.59 0 01-1.122 1.94 1.586 1.586 0 01-1.938-1.12.25.25 0 11.482-.13c.156.58.747.92 1.327.765.581-.155.921-.744.766-1.324a.25.25 0 01.255-.32zM15.612 0a3.047 3.047 0 00-3.044 3.044 3.047 3.047 0 003.044 3.044 3.047 3.047 0 003.045-3.044A3.047 3.047 0 0015.612 0zm0 .5a2.54 2.54 0 012.545 2.544 2.54 2.54 0 01-2.545 2.545 2.54 2.54 0 01-2.544-2.545A2.54 2.54 0 0115.612.499zM3.048.002A3.047 3.047 0 00.004 3.046 3.047 3.047 0 003.048 6.09a3.047 3.047 0 003.044-3.044A3.047 3.047 0 003.048.002zm0 .5a2.54 2.54 0 012.544 2.544A2.54 2.54 0 013.048 5.59 2.54 2.54 0 01.503 3.046 2.54 2.54 0 013.048.5z"/><text font-family="'Helvetica Neue', Helvetica, Arial-Unicode, Arial, Sans-serif" font-weight="bold" font-size="5" y="31.626" x="-3.901">Created by Ahmad Arzaha</text><text font-family="'Helvetica Neue', Helvetica, Arial-Unicode, Arial, Sans-serif" font-weight="bold" font-size="5" y="36.626" x="-3.901">from the Noun Project</text></svg>