<?xml version="1.0" encoding="UTF-8" standalone="no"?>
<svg
        xmlns:dc="http://purl.org/dc/elements/1.1/"
        xmlns:cc="http://creativecommons.org/ns#"
        xmlns:rdf="http://www.w3.org/1999/02/22-rdf-syntax-ns#"
        xmlns="http://www.w3.org/2000/svg"
        xmlns:sodipodi="http://sodipodi.sourceforge.net/DTD/sodipodi-0.dtd"
        xmlns:inkscape="http://www.inkscape.org/namespaces/inkscape"
        height="7.9726849"
        width="18.656511"
        inkscape:version="1.0 (4035a4fb49, 2020-05-01)"
        sodipodi:docname="owo.svg"
        id="svg68"
        y="0px"
        x="0px"
        viewBox="0 0 18.656512 7.9726847"
        version="1.1">
  <metadata
     id="metadata74">
    <rdf:RDF>
      <cc:Work
         rdf:about="">
        <dc:format>image/svg+xml</dc:format>
        <dc:type
           rdf:resource="http://purl.org/dc/dcmitype/StillImage" />
        <dc:title></dc:title>
      </cc:Work>
    </rdf:RDF>
  </metadata>
  <defs
     id="defs72" />
  <sodipodi:namedview
     inkscape:current-layer="g58"
     inkscape:window-maximized="1"
     inkscape:window-y="-8"
     inkscape:window-x="-8"
     inkscape:cy="0.43251789"
     inkscape:cx="0.49452233"
     inkscape:zoom="187.46191"
     showgrid="false"
     id="namedview70"
     inkscape:window-height="715"
     inkscape:window-width="1366"
     inkscape:pageshadow="2"
     inkscape:pageopacity="0"
     guidetolerance="10"
     gridtolerance="10"
     objecttolerance="10"
     borderopacity="1"
     bordercolor="#666666"
     pagecolor="#ffffff" />
  <g
     id="g62"
     transform="translate(-3.9007396,-280.37384)">
    <g
       id="g60"
       transform="translate(0.00336753,0.64089223)">
      <g
         id="g58"
         transform="matrix(1.0975679,0,0,1.0975679,31.094333,-59.132567)">
        <path
           id="path50"
           d="m -18.636719,314.01758 a 0.22779913,0.22779913 0 0 0 -0.208984,0.17187 c -0.205465,0.76681 0.252726,1.56212 1.019531,1.76758 0.766805,0.20547 1.56016,-0.25273 1.765625,-1.01953 A 0.22779913,0.22779913 0 1 0 -16.5,314.81836 c -0.141744,0.52899 -0.67999,0.83901 -1.208984,0.69726 -0.528995,-0.14174 -0.83901,-0.67803 -0.697266,-1.20703 a 0.22779913,0.22779913 0 0 0 -0.230469,-0.29101 z"
           />
        <path
           id="path52"
           d="m -13.921875,314.01758 a 0.22779913,0.22779913 0 0 1 0.208984,0.17187 c 0.205465,0.76681 -0.254679,1.56212 -1.021484,1.76758 -0.766805,0.20547 -1.56016,-0.25273 -1.765625,-1.01953 a 0.22779913,0.22779913 0 1 1 0.439453,-0.11914 c 0.141744,0.52899 0.67999,0.83901 1.208985,0.69726 0.528994,-0.14174 0.839009,-0.67803 0.697265,-1.20703 a 0.22779913,0.22779913 0 0 1 0.232422,-0.29101 z"
           />
        <path
           id="path56"
           d="m -10.554688,308.74219 c -1.529344,0 -2.773437,1.24409 -2.773437,2.77343 0,1.52935 1.244093,2.77344 2.773437,2.77344 1.5293445,0 2.773438,-1.24409 2.773438,-2.77344 0,-1.52934 -1.2440935,-2.77343 -2.773438,-2.77343 z m 0,0.45508 c 1.2831456,0 2.3183599,1.03521 2.3183599,2.31835 0,1.28315 -1.0352143,2.31836 -2.3183599,2.31836 -1.283145,0 -2.318359,-1.03521 -2.318359,-2.31836 0,-1.28314 1.035214,-2.31835 2.318359,-2.31835 z"
           />
        <path
           d="m -22.002594,308.74393 c -1.529344,0 -2.773437,1.24409 -2.773437,2.77343 0,1.52935 1.244093,2.77344 2.773437,2.77344 1.529345,0 2.773438,-1.24409 2.773438,-2.77344 0,-1.52934 -1.244093,-2.77343 -2.773438,-2.77343 z m 0,0.45508 c 1.283146,0 2.31836,1.03521 2.31836,2.31835 0,1.28315 -1.035214,2.31836 -2.31836,2.31836 -1.283145,0 -2.318359,-1.03521 -2.318359,-2.31836 0,-1.28314 1.035214,-2.31835 2.318359,-2.31835 z"
           id="path56-5" />
      </g>
    </g>
  </g>
  <text
     id="text64"
     font-family="'Helvetica Neue', Helvetica, Arial-Unicode, Arial, Sans-serif"
     font-weight="bold"
     font-size="5px"
     fill="#000000"
     y="31.626146"
     x="-3.9007397">Created by Ahmad Arzaha</text>
  <text
     id="text66"
     font-family="'Helvetica Neue', Helvetica, Arial-Unicode, Arial, Sans-serif"
     font-weight="bold"
     font-size="5px"
     fill="#000000"
     y="36.626144"
     x="-3.9007397">from the Noun Project</text>
</svg>
