<svg role="img" viewBox="0 0 728.3 100.9" xmlns="http://www.w3.org/2000/svg"><title>PerfectDreams</title><defs><linearGradient x1="0" y1="0" x2="1" y2="0" gradientUnits="userSpaceOnUse" gradientTransform="matrix(1615.5 0 0 -1615.5 -1 1958)" spreadMethod="pad" id="perfectdreams-logo-black-with-yellow-star-a"><stop offset="0" stop-color="#ffb724"/><stop offset=".3" stop-color="#ffb724"/><stop offset="1" stop-color="#ffde00"/><stop offset="1" stop-color="#ffde00"/></linearGradient><linearGradient x1="0" y1="0" x2="1" y2="0" gradientUnits="userSpaceOnUse" gradientTransform="matrix(77.13573 0 0 -77.13573 1573 1858)" spreadMethod="pad" id="perfectdreams-logo-black-with-yellow-star-b"><stop offset="0" stop-color="#ffb724"/><stop offset=".3" stop-color="#ffb724"/><stop offset="1" stop-color="#ffde00"/><stop offset="1" stop-color="#ffde00"/></linearGradient><clipPath clipPathUnits="userSpaceOnUse" id="perfectdreams-logo-black-with-yellow-star-c"><path d="M0 2501h2087V0H0Z"/></clipPath></defs><path d="M796 2063a2956 2956 0 0 1-421-36 1621 1621 0 0 1-204-52 653 653 0 0 1-96-43 244 244 0 0 1-42-33c-6-7-11-14-15-22a68 68 0 0 1-5-12l5 12c4 8 10 15 16 21 6 7 13 12 20 18l21 14a400 400 0 0 0 97 42 1054 1054 0 0 0 204 48 2323 2323 0 0 0 420 30 2611 2611 0 0 0 418-36 1748 1748 0 0 0 203-50 710 710 0 0 0 140-65l19-15 15-18a13 13 0 0 1 21 14l-19 22-22 17a732 732 0 0 1-147 66 1277 1277 0 0 1-207 48 2281 2281 0 0 1-421 30" fill="url(#perfectdreams-logo-black-with-yellow-star-a)" transform="matrix(.35278 0 0 -.35278 -4 728)"/><path d="m1613 1895-10-20c-1-2-2-2-4-2l-22 4c-3 0-5-3-3-6l16-16v-4l-10-20c-2-3 1-6 4-4l20 10 4-1 16-16c2-2 6 0 6 3l-4 22 2 3 20 11c3 1 3 5 0 6l-23 3-2 3-4 23c0 1-1 2-3 2l-3-1" fill="url(#perfectdreams-logo-black-with-yellow-star-b)" transform="matrix(.35278 0 0 -.35278 -4 728)"/><g clip-path="url(#perfectdreams-logo-black-with-yellow-star-c)" fill="currentColor" transform="matrix(.35278 0 0 -.35278 -4 728)"><path d="M243 1882c6 5 12 8 18 8s11-1 14-4c4-3 6-6 6-11 0-6-4-9-11-9h-37c0 6 3 11 10 16m60-53c-3 0-7-1-11-4l-3-1c-7-2-15-3-27-3-6 0-12 2-19 5-6 4-9 8-9 14h68c7 0 14 3 20 8 5 6 8 15 8 26 0 12-3 23-9 33-13 19-33 28-59 28-24 0-43-7-59-21a75 75 0 0 1-23-58c0-20 6-37 18-52 6-8 15-15 26-20s23-7 38-7c40 0 61 8 61 25 0 4-1 8-4 14-4 8-10 13-16 13m158 96c-2 2-5 4-9 5a69 69 0 0 1-21 4c-5 0-10-2-16-5l-12-8-4-5-3 10c-3 4-10 6-22 6s-19-2-22-8l-3-7v-119c0-6 2-10 5-13 4-3 11-4 20-4 12 0 20 2 22 7 2 3 3 5 3 8l1 10v60c0 5 2 10 6 13 5 4 10 6 15 6l12-3 10-2c7 0 13 4 16 11 4 7 6 14 6 20s-2 11-4 14m131-4c-2 7-10 11-23 11l-19-2v16c0 5 4 7 11 7h8c6 1 10 2 13 5 3 4 5 11 5 20 0 12-3 20-8 22l-8 3-10 1c-20 0-35-6-45-18a59 59 0 0 1-16-41v-15h-10c-11 0-17-8-17-23 0-11 2-18 6-21 2-2 5-3 10-4h11v-86l3-8c1-3 4-5 8-6l14-2 14 2c4 1 7 3 9 7l2 16v77l19-1c7 0 13 1 17 4 3 1 5 4 6 7l2 15c0 6 0 10-2 14m73-39c7 5 13 8 19 8s11-1 14-4c4-3 5-6 5-11 0-6-3-9-10-9h-37c0 6 3 11 9 16m61-53c-3 0-7-1-11-4l-3-1c-7-2-16-3-27-3-6 0-12 2-19 5-6 4-9 8-9 14h68c7 0 14 3 19 8 6 6 9 15 9 26 0 12-3 23-10 33-12 19-32 28-58 28-24 0-43-7-59-21a75 75 0 0 1-23-58c0-20 6-37 18-52 6-8 15-15 26-20s23-7 37-7c41 0 62 8 62 25 0 4-1 8-4 14-4 8-10 13-16 13m148 12c-3 0-7-2-12-5-6-4-11-5-17-5s-12 2-18 6c-5 5-8 11-8 19 0 9 3 15 9 20 5 4 11 6 18 6 6 0 11-1 15-4 6-5 11-7 15-7 6 0 13 5 20 16 4 6 6 12 6 17 0 4-2 9-7 13l-9 5-4 3-15 6a80 80 0 0 1-91-40c-6-10-8-22-8-34s2-24 7-34 12-18 19-25c17-12 34-19 52-19 16 0 29 4 40 12 11 6 16 13 16 20 0 4-2 9-7 15-8 10-15 15-21 15m150 87-8 3-10 1-19-2v29l-1 14c-3 7-11 11-24 11-12 0-19-2-22-7l-2-7-1-10v-30l-9 2c-5 0-9-2-12-4l-4-8-1-17c0-8 1-13 4-17 3-3 6-4 10-4h12v-42c0-22 5-37 16-46 10-9 25-13 45-13h10l7 2c6 3 8 11 8 23 0 10-2 16-6 19l-8 3h-10c-4 0-8 1-9 3-2 3-3 7-3 12v39l19-1 10 1 7 2c6 3 8 10 8 22 0 13-2 20-7 22m139-81a54 54 0 0 0-37-15h-28v109h28c14 0 27-6 38-16 11-11 16-24 16-39 0-16-6-29-17-39m36 114c-21 20-45 30-73 30l-53 1c-13 0-20-3-23-8l-3-8v-170c0-8 1-14 3-18 3-5 11-7 22-7h53c29 0 54 10 75 31s31 46 31 75c0 30-11 54-32 74m163-36-9 5a70 70 0 0 1-22 4c-4 0-10-2-16-5l-11-8-4-5c0 3-1 6-4 10-2 4-10 6-21 6-12 0-20-2-23-8l-2-7v-119c0-6 2-10 5-13 4-3 10-4 20-4 12 0 19 2 22 7 2 3 3 5 3 8v70c0 5 2 10 7 13 5 4 9 6 15 6s9-1 12-3l10-2c7 0 12 4 16 11 3 7 5 14 5 20s-1 11-3 14m69-43c6 5 12 8 18 8 7 0 11-1 15-4 3-3 5-6 5-11 0-6-4-9-11-9h-36c0 6 3 11 9 16m61-53c-3 0-7-1-12-4l-3-1c-6-2-15-3-26-3-7 0-13 2-19 5-7 4-10 8-10 14h68c8 0 14 3 20 8 6 6 9 15 9 26 0 12-4 23-10 33-13 19-32 28-59 28-23 0-43-7-58-21a75 75 0 0 1-24-58c0-20 6-37 18-52 6-8 15-15 26-20s24-7 38-7c41 0 61 8 61 25 0 4-1 8-4 14-4 8-9 13-15 13m423 86a49 49 0 0 1-38 17c-7 0-14-1-21-5a63 63 0 0 1-21-20 47 47 0 0 1-44 25c-13 0-24-6-33-20 0 7-1 12-5 15-3 3-10 5-21 5-10 0-17-2-20-8-2-2-2-5-3-7v-121l3-8c2-5 10-7 22-7s19 2 22 7c2 3 3 5 3 8v61c0 16 6 25 18 25s18-9 18-25v-61l2-7c3-6 11-8 23-8s19 2 22 7l3 8v60c0 8 1 15 4 19 2 4 7 7 13 7 12 0 18-9 18-25v-51l1-10 2-7c3-6 10-8 22-8 13 0 20 2 22 7l3 8 1 10v50c0 27-6 47-16 59m155-62c-4 7-8 11-14 14-12 6-24 9-37 11s-19 5-19 11c0 4 5 6 17 6 7 0 14-1 20-4s10-4 13-4c4 0 9 3 13 10s6 12 6 17c0 4-3 8-10 11-14 7-28 10-42 10-42 0-62-15-62-45 0-11 1-19 5-27 4-7 8-13 14-16 12-7 24-12 36-14 13-1 19-4 19-8s-6-6-17-6c-7 0-14 2-22 7-8 4-15 7-19 7-5 0-9-2-11-5-7-10-11-18-11-23s2-9 6-11a106 106 0 0 1 100-7c6 3 11 9 15 16s6 15 6 25-2 18-6 25m-384 64-3 8c-1 3-4 5-8 6l-16 2c-14 0-22-6-23-16l-5 6-11 6-18 3c-9 0-18-2-26-6a221 221 0 0 0 30-25c2 3 6 5 10 5 7 0 12-4 13-11l3-18 17-3a13 13 0 0 0 4-24l-16-8 2-18a13 13 0 0 0-22-11l-13 13-16-8a13 13 0 0 0-17 5c-2 4-2 9 0 13l8 16-12 12a13 13 0 0 0-2 17 192 192 0 0 1-20 16 75 75 0 0 1 10-93c14-15 29-23 46-23 16 0 28 6 35 16 1-5 3-9 6-12 4-2 11-4 22-4 10 0 17 3 19 8l3 8v120M15 1879a164 164 0 0 0 47 50v12h19a427 427 0 0 0 66 32 80 80 0 0 1-49 18H37c-12 0-20-2-23-7l-2-8-1-10v-98l4 11"/><path d="M159 1962a602 602 0 0 1-55-22c4-1 8-3 11-6 6-4 9-10 9-19 0-8-3-15-9-19-5-4-11-6-17-6H62v27a205 205 0 0 1-26-21 92 92 0 0 1-20-32l-2-12-3-45 2-15c2-7 10-11 24-11 12 0 19 3 22 8l3 8v42h36a80 80 0 0 1 69 42c5 10 7 22 7 34a76 76 0 0 1-15 47"/></g></svg>