<svg width="17" height="17" viewBox="0 0 17 17" fill="none" xmlns="http://www.w3.org/2000/svg">
    <path d="M8.5 0.25C13.0563 0.25 16.75 3.94365 16.75 8.5C16.75 13.0563 13.0563 16.75 8.5 16.75C3.94365 16.75 0.25 13.0563 0.25 8.5C0.25 3.94365 3.94365 0.25 8.5 0.25ZM4.28613 13.7734C5.44107 14.6976 6.90574 15.25 8.5 15.25C12.2279 15.25 15.25 12.2279 15.25 8.5C15.25 6.90574 14.6976 5.44107 13.7734 4.28613L4.28613 13.7734ZM8.5 1.75C4.77208 1.75 1.75 4.77208 1.75 8.5C1.75 10.0938 2.30196 11.5581 3.22559 12.7129L12.7129 3.22559C11.5581 2.30196 10.0938 1.75 8.5 1.75Z" fill="black" stroke="black" stroke-width="0.5"/>
</svg>