<?xml version="1.0" standalone="no"?>
<!DOCTYPE svg PUBLIC "-//W3C//DTD SVG 20010904//EN"
        "http://www.w3.org/TR/2001/REC-SVG-20010904/DTD/svg10.dtd">
<svg version="1.0" xmlns="http://www.w3.org/2000/svg"
     width="1200.000000pt" height="917.000000pt" viewBox="0 0 1200.000000 917.000000"
     preserveAspectRatio="xMidYMid meet">

    <g transform="translate(0.000000,917.000000) scale(0.100000,-0.100000)"
       fill="#000000" stroke="none">
        <path d="M3165 8750 c-118 -16 -423 -99 -548 -149 -223 -88 -377 -174 -602
-334 -136 -97 -461 -422 -582 -582 -162 -215 -259 -379 -351 -595 -97 -228
-176 -520 -191 -710 -32 -397 -26 -551 35 -881 47 -259 131 -496 274 -779 255
-502 716 -972 1187 -1208 136 -69 321 -143 416 -167 51 -12 124 -32 162 -44
74 -22 170 -36 350 -50 71 -6 139 -19 190 -35 149 -49 508 -83 680 -65 44 4
124 13 177 18 285 30 646 162 963 352 195 116 508 329 680 461 128 99 240 201
565 520 753 737 810 798 1085 1143 361 454 382 480 472 565 160 154 337 264
528 328 149 49 134 51 213 -26 78 -75 143 -170 166 -240 23 -68 46 -208 46
-278 0 -131 -62 -359 -142 -519 -86 -171 -262 -410 -543 -740 -151 -177 -316
-348 -849 -879 -676 -674 -758 -753 -1001 -962 -676 -582 -1016 -800 -1540
-989 -174 -63 -281 -89 -493 -121 -166 -25 -184 -26 -292 -15 -325 34 -531
115 -700 276 -155 146 -148 125 28 -97 372 -467 751 -803 1157 -1027 185 -101
428 -193 664 -251 88 -22 126 -27 316 -45 65 -6 166 -27 295 -60 155 -40 395
-52 614 -31 338 32 565 97 891 256 185 90 278 147 483 296 397 289 688 527
1007 823 437 406 771 741 1024 1029 172 196 465 576 668 867 126 180 339 540
396 667 133 298 254 723 283 993 18 164 20 563 4 711 -45 412 -218 920 -420
1229 -182 277 -375 486 -615 664 -202 151 -255 183 -405 252 -169 76 -220 93
-385 133 -179 42 -232 51 -390 66 -66 7 -172 25 -235 40 -223 55 -437 76 -618
60 -306 -26 -494 -63 -726 -145 -338 -118 -552 -226 -876 -441 -368 -244 -800
-642 -1215 -1119 -497 -572 -909 -936 -1250 -1108 -88 -43 -243 -101 -316
-117 -56 -12 -57 -12 -100 18 -78 54 -170 160 -228 263 -44 78 -70 159 -86
269 -71 464 129 932 540 1265 116 93 190 141 334 214 128 65 255 113 376 141
132 31 345 63 432 64 89 1 91 4 22 30 -25 9 -54 23 -65 30 -16 12 -6 12 61 0
128 -25 453 -110 544 -143 46 -18 87 -29 90 -25 15 15 -261 221 -481 359 -160
99 -492 273 -649 339 -148 61 -390 139 -549 174 -304 69 -273 66 -605 68 -170
1 -337 -1 -370 -6z"/>
    </g>
</svg>
