<svg xmlns="http://www.w3.org/2000/svg" version="1.1" viewBox="0 0 26.458333 33.0729175" x="0px" y="0px"><g transform="translate(0,-270.54165)"><g transform="translate(0.00336753,0.64089223)"><g transform="matrix(1.0975679,0,0,1.0975679,31.094333,-59.132567)"><path style="color:#000000;font-style:normal;font-variant:normal;font-weight:normal;font-stretch:normal;font-size:medium;line-height:normal;font-family:sans-serif;font-variant-ligatures:normal;font-variant-position:normal;font-variant-caps:normal;font-variant-numeric:normal;font-variant-alternates:normal;font-feature-settings:normal;text-indent:0;text-align:start;text-decoration:none;text-decoration-line:none;text-decoration-style:solid;text-decoration-color:#000000;letter-spacing:normal;word-spacing:normal;text-transform:none;writing-mode:lr-tb;direction:ltr;text-orientation:mixed;dominant-baseline:auto;baseline-shift:baseline;text-anchor:start;white-space:normal;shape-padding:0;clip-rule:nonzero;display:inline;overflow:visible;visibility:visible;opacity:1;isolation:auto;mix-blend-mode:normal;color-interpolation:sRGB;color-interpolation-filters:linearRGB;solid-color:#000000;solid-opacity:1;vector-effect:none;fill:#000000;fill-opacity:1;fill-rule:evenodd;stroke:none;stroke-width:0.45555267;stroke-linecap:round;stroke-linejoin:round;stroke-miterlimit:4;stroke-dasharray:none;stroke-dashoffset:0;stroke-opacity:1;color-rendering:auto;image-rendering:auto;shape-rendering:auto;text-rendering:auto;enable-background:accumulate" d="m -23.419766,304.73047 c -1.661329,0 -3.005859,1.34453 -3.005859,3.00586 v 8.20117 c 0,1.66134 1.34453,3.00586 3.005859,3.00586 h 14.2792974 c 1.6613289,0 3.0058594,-1.34452 3.0058594,-3.00586 v -8.20117 c 0,-1.66133 -1.3445305,-3.00586 -3.0058594,-3.00586 z m 0,0.45508 h 14.2792974 c 1.4168333,0 2.5488281,1.13395 2.5488281,2.55078 v 8.20117 c 0,1.41684 -1.1319948,2.55078 -2.5488281,2.55078 H -23.419766 c -1.416833,0 -2.548828,-1.13394 -2.548828,-2.55078 v -8.20117 c 0,-1.41683 1.131995,-2.55078 2.548828,-2.55078 z"/><path style="color:#000000;font-style:normal;font-variant:normal;font-weight:normal;font-stretch:normal;font-size:medium;line-height:normal;font-family:sans-serif;font-variant-ligatures:normal;font-variant-position:normal;font-variant-caps:normal;font-variant-numeric:normal;font-variant-alternates:normal;font-feature-settings:normal;text-indent:0;text-align:start;text-decoration:none;text-decoration-line:none;text-decoration-style:solid;text-decoration-color:#000000;letter-spacing:normal;word-spacing:normal;text-transform:none;writing-mode:lr-tb;direction:ltr;text-orientation:mixed;dominant-baseline:auto;baseline-shift:baseline;text-anchor:start;white-space:normal;shape-padding:0;clip-rule:nonzero;display:inline;overflow:visible;visibility:visible;opacity:1;isolation:auto;mix-blend-mode:normal;color-interpolation:sRGB;color-interpolation-filters:linearRGB;solid-color:#000000;solid-opacity:1;vector-effect:none;fill:#000000;fill-opacity:1;fill-rule:evenodd;stroke:none;stroke-width:0.4555527;stroke-linecap:round;stroke-linejoin:round;stroke-miterlimit:4;stroke-dasharray:none;stroke-dashoffset:0;stroke-opacity:1;color-rendering:auto;image-rendering:auto;shape-rendering:auto;text-rendering:auto;enable-background:accumulate" d="m -18.636719,314.01758 a 0.22779913,0.22779913 0 0 0 -0.208984,0.17187 c -0.205465,0.76681 0.252726,1.56212 1.019531,1.76758 0.766805,0.20547 1.56016,-0.25273 1.765625,-1.01953 A 0.22779913,0.22779913 0 1 0 -16.5,314.81836 c -0.141744,0.52899 -0.67999,0.83901 -1.208984,0.69726 -0.528995,-0.14174 -0.83901,-0.67803 -0.697266,-1.20703 a 0.22779913,0.22779913 0 0 0 -0.230469,-0.29101 z"/><path style="color:#000000;font-style:normal;font-variant:normal;font-weight:normal;font-stretch:normal;font-size:medium;line-height:normal;font-family:sans-serif;font-variant-ligatures:normal;font-variant-position:normal;font-variant-caps:normal;font-variant-numeric:normal;font-variant-alternates:normal;font-feature-settings:normal;text-indent:0;text-align:start;text-decoration:none;text-decoration-line:none;text-decoration-style:solid;text-decoration-color:#000000;letter-spacing:normal;word-spacing:normal;text-transform:none;writing-mode:lr-tb;direction:ltr;text-orientation:mixed;dominant-baseline:auto;baseline-shift:baseline;text-anchor:start;white-space:normal;shape-padding:0;clip-rule:nonzero;display:inline;overflow:visible;visibility:visible;opacity:1;isolation:auto;mix-blend-mode:normal;color-interpolation:sRGB;color-interpolation-filters:linearRGB;solid-color:#000000;solid-opacity:1;vector-effect:none;fill:#000000;fill-opacity:1;fill-rule:evenodd;stroke:none;stroke-width:0.4555527;stroke-linecap:round;stroke-linejoin:round;stroke-miterlimit:4;stroke-dasharray:none;stroke-dashoffset:0;stroke-opacity:1;color-rendering:auto;image-rendering:auto;shape-rendering:auto;text-rendering:auto;enable-background:accumulate" d="m -13.921875,314.01758 a 0.22779913,0.22779913 0 0 1 0.208984,0.17187 c 0.205465,0.76681 -0.254679,1.56212 -1.021484,1.76758 -0.766805,0.20547 -1.56016,-0.25273 -1.765625,-1.01953 a 0.22779913,0.22779913 0 1 1 0.439453,-0.11914 c 0.141744,0.52899 0.67999,0.83901 1.208985,0.69726 0.528994,-0.14174 0.839009,-0.67803 0.697265,-1.20703 a 0.22779913,0.22779913 0 0 1 0.232422,-0.29101 z"/><path style="color:#000000;font-style:normal;font-variant:normal;font-weight:normal;font-stretch:normal;font-size:medium;line-height:normal;font-family:sans-serif;font-variant-ligatures:normal;font-variant-position:normal;font-variant-caps:normal;font-variant-numeric:normal;font-variant-alternates:normal;font-feature-settings:normal;text-indent:0;text-align:start;text-decoration:none;text-decoration-line:none;text-decoration-style:solid;text-decoration-color:#000000;letter-spacing:normal;word-spacing:normal;text-transform:none;writing-mode:lr-tb;direction:ltr;text-orientation:mixed;dominant-baseline:auto;baseline-shift:baseline;text-anchor:start;white-space:normal;shape-padding:0;clip-rule:nonzero;display:inline;overflow:visible;visibility:visible;opacity:1;isolation:auto;mix-blend-mode:normal;color-interpolation:sRGB;color-interpolation-filters:linearRGB;solid-color:#000000;solid-opacity:1;vector-effect:none;fill:#000000;fill-opacity:1;fill-rule:evenodd;stroke:none;stroke-width:0.4555527;stroke-linecap:round;stroke-linejoin:round;stroke-miterlimit:4;stroke-dasharray:none;stroke-dashoffset:0;stroke-opacity:1;color-rendering:auto;image-rendering:auto;shape-rendering:auto;text-rendering:auto;enable-background:accumulate" d="m -22.005859,308.74219 c -1.529344,0 -2.773438,1.24409 -2.773438,2.77343 0,1.52935 1.244094,2.77344 2.773438,2.77344 1.529344,0 2.77539,-1.24409 2.77539,-2.77344 0,-1.52934 -1.246046,-2.77343 -2.77539,-2.77343 z m 0,0.45508 c 1.283145,0 2.318359,1.03521 2.318359,2.31835 0,1.28315 -1.035214,2.31836 -2.318359,2.31836 -1.283145,0 -2.31836,-1.03521 -2.31836,-2.31836 0,-1.28314 1.035215,-2.31835 2.31836,-2.31835 z"/><path style="color:#000000;font-style:normal;font-variant:normal;font-weight:normal;font-stretch:normal;font-size:medium;line-height:normal;font-family:sans-serif;font-variant-ligatures:normal;font-variant-position:normal;font-variant-caps:normal;font-variant-numeric:normal;font-variant-alternates:normal;font-feature-settings:normal;text-indent:0;text-align:start;text-decoration:none;text-decoration-line:none;text-decoration-style:solid;text-decoration-color:#000000;letter-spacing:normal;word-spacing:normal;text-transform:none;writing-mode:lr-tb;direction:ltr;text-orientation:mixed;dominant-baseline:auto;baseline-shift:baseline;text-anchor:start;white-space:normal;shape-padding:0;clip-rule:nonzero;display:inline;overflow:visible;visibility:visible;opacity:1;isolation:auto;mix-blend-mode:normal;color-interpolation:sRGB;color-interpolation-filters:linearRGB;solid-color:#000000;solid-opacity:1;vector-effect:none;fill:#000000;fill-opacity:1;fill-rule:evenodd;stroke:none;stroke-width:0.4555527;stroke-linecap:round;stroke-linejoin:round;stroke-miterlimit:4;stroke-dasharray:none;stroke-dashoffset:0;stroke-opacity:1;color-rendering:auto;image-rendering:auto;shape-rendering:auto;text-rendering:auto;enable-background:accumulate" d="m -10.554688,308.74219 c -1.529344,0 -2.773437,1.24409 -2.773437,2.77343 0,1.52935 1.244093,2.77344 2.773437,2.77344 1.5293445,0 2.773438,-1.24409 2.773438,-2.77344 0,-1.52934 -1.2440935,-2.77343 -2.773438,-2.77343 z m 0,0.45508 c 1.2831456,0 2.3183599,1.03521 2.3183599,2.31835 0,1.28315 -1.0352143,2.31836 -2.3183599,2.31836 -1.283145,0 -2.318359,-1.03521 -2.318359,-2.31836 0,-1.28314 1.035214,-2.31835 2.318359,-2.31835 z"/></g></g></g><text x="0" y="41.458334" fill="#000000" font-size="5px" font-weight="bold" font-family="'Helvetica Neue', Helvetica, Arial-Unicode, Arial, Sans-serif">Created by Ahmad Arzaha</text><text x="0" y="46.458334" fill="#000000" font-size="5px" font-weight="bold" font-family="'Helvetica Neue', Helvetica, Arial-Unicode, Arial, Sans-serif">from the Noun Project</text></svg>