<svg width="17" height="17" viewBox="0 0 17.3 17.3" fill="none" xmlns="http://www.w3.org/2000/svg">
    <path d="M8.5 15.5C4.63401 15.5 1.5 12.366 1.5 8.5C1.5 4.63401 4.63401 1.5 8.5 1.5C12.366 1.5 15.5 4.63401 15.5 8.5C15.5 12.366 12.366 15.5 8.5 15.5ZM8.5 16.5C12.9183 16.5 16.5 12.9183 16.5 8.5C16.5 4.08172 12.9183 0.5 8.5 0.5C4.08172 0.5 0.5 4.08172 0.5 8.5C0.5 12.9183 4.08172 16.5 8.5 16.5Z" fill="black"/>
    <path d="M11.8536 5.14645C11.6583 4.95118 11.3417 4.95118 11.1464 5.14645L5.14645 11.1464C4.95118 11.3417 4.95118 11.6583 5.14645 11.8536C5.34171 12.0488 5.65829 12.0488 5.85355 11.8536L11.8536 5.85355C12.0488 5.65829 12.0488 5.34171 11.8536 5.14645Z" fill="black"/>
    <path fill-rule="evenodd" clip-rule="evenodd" d="M15.5 8.5C15.5 12.366 12.366 15.5 8.5 15.5C6.74696 15.5 5.14443 14.8556 3.91637 13.7907L13.7907 3.91637C14.8556 5.14443 15.5 6.74696 15.5 8.5ZM3.20926 13.0836L13.0836 3.20926C11.8556 2.14441 10.253 1.5 8.5 1.5C4.63401 1.5 1.5 4.63401 1.5 8.5C1.5 10.253 2.14441 11.8556 3.20926 13.0836ZM16.5 8.5C16.5 12.9183 12.9183 16.5 8.5 16.5C4.08172 16.5 0.5 12.9183 0.5 8.5C0.5 4.08172 4.08172 0.5 8.5 0.5C12.9183 0.5 16.5 4.08172 16.5 8.5Z" fill="black"/>
    <path d="M8.5 0C13.1944 0 17 3.80558 17 8.5C17 13.1944 13.1944 17 8.5 17C3.80558 17 0 13.1944 0 8.5C0 3.80558 3.80558 0 8.5 0ZM8.5 0.5C4.08172 0.5 0.5 4.08172 0.5 8.5C0.5 12.9183 4.08172 16.5 8.5 16.5C12.9183 16.5 16.5 12.9183 16.5 8.5C16.5 4.08172 12.9183 0.5 8.5 0.5ZM13.7907 3.91637C14.8556 5.14443 15.5 6.74696 15.5 8.5C15.5 12.366 12.366 15.5 8.5 15.5C6.74696 15.5 5.14443 14.8556 3.91637 13.7907L13.7907 3.91637ZM4.66504 13.748C5.74018 14.5352 7.06521 15 8.5 15C12.0899 15 15 12.0899 15 8.5C15 7.06521 14.5352 5.74018 13.748 4.66504L4.66504 13.748ZM8.5 1.5C10.253 1.5 11.8556 2.14441 13.0836 3.20926L3.20926 13.0836C2.14441 11.8556 1.5 10.253 1.5 8.5C1.5 4.63401 4.63401 1.5 8.5 1.5ZM8.5 2C4.91015 2 2 4.91015 2 8.5C2 9.9343 2.46435 11.259 3.25098 12.334L12.334 3.25098C11.259 2.46435 9.9343 2 8.5 2Z" fill="black"/>
</svg>
