<svg xmlns="http://www.w3.org/2000/svg" width="56" height="56" fill="#000000" viewBox="0 0 256 256"><path d="M223.16,68.42l-16-32A8,8,0,0,0,200,32H56a8,8,0,0,0-7.16,4.42l-16,32A8.08,8.08,0,0,0,32,72V208a16,16,0,0,0,16,16H208a16,16,0,0,0,16-16V72A8.08,8.08,0,0,0,223.16,68.42ZM178.55,140.7l-24.46,20.19L161.55,191a4,4,0,0,1-1.49,4.17,4.05,4.05,0,0,1-2.39.79,4,4,0,0,1-2-.55L128,179.18l-27.64,16.27A4,4,0,0,1,94.45,191l7.46-30.15L77.45,140.7a4,4,0,0,1,2.24-7.08l32.24-2.49,12.4-28.71a4,4,0,0,1,7.34,0l12.4,28.71,32.24,2.49a4,4,0,0,1,2.24,7.08ZM52.94,64l8-16H195.06l8,16Z"></path></svg>
