<svg width="16" height="16" viewBox="0 0 16 16" fill="none" xmlns="http://www.w3.org/2000/svg">
    <path d="M11.5603 1.30485C11.9159 1.30372 12.0995 1.35066 12.1922 1.36637C12.4148 1.40415 12.6193 1.49191 12.698 1.52165C12.9122 1.6026 13.1009 1.73714 13.157 1.77262C13.2926 1.85836 13.4051 1.94234 13.4939 2.00895C13.5946 2.08446 13.6755 2.16896 13.7273 2.22477C13.8036 2.30685 13.8095 2.31654 13.8689 2.37907C14.0927 2.61451 14.1809 2.92534 14.1922 2.95622C14.2274 3.05138 14.3009 3.23835 14.3318 3.44254C14.3873 3.80927 14.3547 4.32954 14.3465 4.43864C14.336 4.57649 14.3021 4.69814 14.2889 4.74723C14.2695 4.81922 14.2725 4.81187 14.2742 4.79508C14.246 5.0764 14.1138 5.31502 14.075 5.39274C14.058 5.42673 14.0422 5.46552 14.0076 5.54313C13.9776 5.61048 13.9365 5.70098 13.8865 5.79313C13.7733 6.00174 13.6549 6.15265 13.5818 6.24626C13.4968 6.35513 13.4013 6.4646 13.3299 6.54997C13.2042 6.70007 13.0646 6.83128 12.9256 6.93766C12.8606 6.98738 12.7953 7.03224 12.7478 7.06461C12.6945 7.10099 12.6612 7.12325 12.6326 7.14469C12.5902 7.17651 12.5463 7.20583 12.5027 7.23258C12.5811 7.27852 12.664 7.32654 12.7605 7.38297C12.8701 7.44702 12.9569 7.51957 13.0125 7.56754C13.0898 7.63432 13.0928 7.6396 13.1336 7.67301C13.189 7.71835 13.3577 7.84406 13.491 7.9904C13.6464 8.16104 13.7391 8.29323 13.8094 8.39176C13.8379 8.43176 13.8688 8.47135 13.908 8.52067C13.9432 8.56498 13.9935 8.62726 14.0389 8.68961C14.1252 8.80834 14.1768 8.92301 14.2088 9.00016C14.2571 9.11685 14.2419 9.0894 14.2654 9.14176C14.338 9.30337 14.3875 9.47998 14.4158 9.57145C14.4783 9.77374 14.5077 9.96956 14.5271 10.0861C14.5317 10.1131 14.5385 10.1443 14.5525 10.1955C14.5637 10.2364 14.5886 10.321 14.6062 10.3996C14.6607 10.6421 14.662 10.9163 14.6551 11.1076C14.6479 11.3044 14.6283 11.5027 14.6053 11.6203C14.5792 11.7535 14.5388 11.8674 14.5086 11.9474C14.468 12.0551 14.462 12.0627 14.4461 12.1095C14.4104 12.2141 14.3686 12.3091 14.3367 12.38C14.3003 12.4609 14.2793 12.5051 14.2596 12.5539C14.1566 12.8079 14.0152 13.012 13.9344 13.1291C13.8017 13.3212 13.6329 13.4645 13.5437 13.5402C13.4383 13.6297 13.3197 13.731 13.2068 13.8156C13.0961 13.8986 12.9777 13.9771 12.8787 14.0422C12.7125 14.1513 12.484 14.24 12.4568 14.2521C12.3417 14.3038 12.2266 14.3363 12.1521 14.3566C12.0536 14.3834 12.0264 14.3889 11.9822 14.4025C11.8416 14.4459 11.7121 14.4581 11.618 14.465C11.5708 14.4684 11.5184 14.4711 11.4715 14.4738C11.4217 14.4766 11.3684 14.4801 11.3084 14.4845C10.8452 14.5189 10.5505 14.5186 10.3406 14.5002C10.2312 14.4906 10.1493 14.4757 10.0838 14.4621C9.9867 14.4419 10.035 14.4518 10.0467 14.4533C9.89001 14.4338 9.74242 14.4022 9.55253 14.3517C9.50139 14.3382 9.44634 14.325 9.38065 14.3097C9.31902 14.2954 9.24322 14.2787 9.17167 14.2599C9.0193 14.2199 8.8751 14.1663 8.75956 14.1252C8.56802 14.057 8.36095 13.9393 8.31229 13.9142C8.15021 13.8308 7.98027 13.7093 7.87674 13.634C7.63252 13.4562 7.48847 13.1842 7.45682 13.132C7.38514 13.0137 7.31502 12.8878 7.24979 12.7541V12.7531C7.21924 12.6978 7.19307 12.643 7.17167 12.5881C7.1678 12.5806 7.16343 12.5698 7.15799 12.5588C7.13662 12.5152 7.11429 12.465 7.08963 12.3996C6.94356 12.012 7.13953 11.5798 7.52713 11.4338C7.91457 11.2878 8.34677 11.483 8.49296 11.8703C8.50207 11.8945 8.50593 11.9012 8.50467 11.8986V11.8996C8.50584 11.9018 8.50651 11.9025 8.50956 11.9084L8.53983 11.9709L8.55643 12.009L8.56522 12.0363L8.57792 12.0568L8.59745 12.0968C8.63941 12.1829 8.68758 12.2681 8.74003 12.3547C8.74832 12.3683 8.75782 12.3847 8.76444 12.3957C8.772 12.4082 8.7781 12.4194 8.78397 12.4289C8.78835 12.4359 8.79252 12.4415 8.79569 12.4465C8.88486 12.5103 8.95662 12.5585 8.99881 12.5802C9.03132 12.597 9.06447 12.6151 9.09061 12.6291C9.11886 12.6442 9.14286 12.6564 9.16581 12.6681C9.21218 12.6919 9.24166 12.705 9.26151 12.7121C9.39923 12.7611 9.47584 12.7886 9.55253 12.8088C9.59945 12.8211 9.65231 12.8329 9.72049 12.8488C9.78426 12.8636 9.8613 12.8821 9.93827 12.9025C10.0858 12.9417 10.1635 12.9555 10.2322 12.964C10.2802 12.97 10.3208 12.9788 10.3426 12.9836C10.3756 12.9907 10.3699 12.9902 10.3894 12.9943C10.4047 12.9975 10.4279 13.0022 10.4715 13.006C10.5687 13.0146 10.7745 13.0198 11.1971 12.9884C11.27 12.983 11.3331 12.9797 11.3855 12.9767C11.4405 12.9736 11.4766 12.9712 11.5086 12.9689C11.5303 12.9673 11.5442 12.9659 11.5515 12.965C11.5919 12.9528 11.6312 12.9431 11.6629 12.9347C11.7033 12.9241 11.7276 12.9178 11.7586 12.9093C11.7863 12.9018 11.8065 12.8959 11.8221 12.8908C11.8337 12.887 11.8398 12.8847 11.8416 12.884C11.8775 12.8678 11.9128 12.8531 11.9392 12.842C11.968 12.8298 11.9878 12.821 12.0066 12.8127C12.0245 12.8047 12.0365 12.7993 12.0447 12.7951C12.0516 12.7915 12.0548 12.7896 12.0555 12.7892C12.1539 12.7246 12.2377 12.6677 12.3074 12.6154C12.3747 12.5649 12.4508 12.5004 12.573 12.3966C12.6176 12.3588 12.6472 12.3328 12.6707 12.3097C12.6907 12.29 12.6985 12.2795 12.7 12.2775C12.7825 12.158 12.8358 12.0746 12.8699 11.9904C12.9037 11.9071 12.9444 11.8184 12.9685 11.7648C12.9972 11.7011 13.0145 11.6595 13.0262 11.6252C13.0416 11.5798 13.0584 11.5373 13.0711 11.505C13.0855 11.4681 13.0951 11.445 13.1053 11.4181C13.124 11.3684 13.1301 11.3447 13.1326 11.3322C13.1326 11.3322 13.1376 11.3039 13.1433 11.2463C13.1487 11.192 13.1535 11.1241 13.156 11.0529C13.1618 10.8938 13.1532 10.7772 13.1424 10.7287C13.1347 10.6945 13.1269 10.6665 13.1062 10.591C13.0885 10.526 13.0649 10.4359 13.0476 10.3322C13.022 10.1784 13.0091 10.0976 12.9832 10.0138C12.9385 9.86918 12.9217 9.81149 12.8973 9.757C12.8773 9.71258 12.8608 9.67093 12.8494 9.64176C12.8361 9.60777 12.8303 9.59202 12.823 9.57438C12.8204 9.56804 12.8176 9.56381 12.8162 9.56071C12.7958 9.53338 12.7717 9.50183 12.7332 9.45329C12.6929 9.40256 12.6405 9.33694 12.5877 9.26286C12.5172 9.16403 12.4705 9.09777 12.3816 9.00016C12.3462 8.96128 12.3321 8.95578 12.1824 8.83317C12.1478 8.80484 12.1167 8.77734 12.0926 8.75602C12.0651 8.73176 12.0499 8.71777 12.032 8.70231C11.9979 8.6729 11.9935 8.67193 12.0037 8.6779C11.9038 8.6195 11.7559 8.53637 11.6414 8.46696C11.5882 8.4347 11.5546 8.42338 11.4021 8.35563C11.3391 8.32764 11.2911 8.31683 11.1521 8.27848C11.1013 8.26445 11.0479 8.25135 10.9773 8.23454C10.9113 8.21882 10.8287 8.19959 10.7449 8.17594C10.6196 8.14057 10.5495 8.123 10.489 8.11442C10.3159 8.08986 10.2728 8.0784 10.1756 8.06657C10.173 8.06666 10.1701 8.06642 10.1668 8.06657C10.1548 8.06712 10.0788 8.07162 10.0291 8.07243C9.99359 8.07301 9.84832 8.07749 9.6951 8.02751C9.61227 8.00048 9.44898 7.93353 9.3162 7.76676C9.16233 7.57339 9.127 7.34653 9.15506 7.16129C9.20522 6.83039 9.44075 6.67174 9.51639 6.62711C9.6057 6.57446 9.68485 6.55317 9.71268 6.54606C9.77494 6.53018 9.82676 6.52634 9.83573 6.52555C9.84164 6.52503 9.84739 6.52394 9.85233 6.5236C9.99154 6.49978 10.0342 6.49804 10.1131 6.47672C10.2813 6.43129 10.4738 6.40128 10.5525 6.3859C10.6033 6.37598 10.6497 6.36856 10.6853 6.36344C10.7276 6.35738 10.7439 6.35565 10.7693 6.35172C10.81 6.34543 10.8113 6.34284 10.8006 6.34684C10.9845 6.27726 11.0561 6.25775 11.1922 6.20329C11.2933 6.1628 11.3902 6.11371 11.531 6.04801C11.6744 5.98114 11.7134 5.95931 11.7332 5.9445C11.7947 5.89836 11.8589 5.85454 11.9031 5.82438C11.9531 5.79028 11.9864 5.76767 12.0144 5.74626C12.0672 5.70587 12.126 5.65099 12.1795 5.58708C12.2823 5.46423 12.3345 5.40522 12.3992 5.32243C12.4669 5.23568 12.5187 5.16845 12.5682 5.07731C12.5885 5.0397 12.6099 4.99474 12.6375 4.93278C12.6605 4.88118 12.6968 4.79559 12.7332 4.72282C12.7487 4.69169 12.7595 4.67109 12.7693 4.65055C12.7787 4.63108 12.7838 4.61826 12.7869 4.61051C12.7933 4.59456 12.7855 4.61057 12.782 4.64567C12.789 4.5757 12.8016 4.51446 12.8123 4.46793C12.8225 4.42356 12.8344 4.37973 12.8406 4.35661C12.8573 4.29461 12.8521 4.30285 12.8504 4.32536C12.8536 4.28239 12.8613 4.16012 12.8631 4.01969C12.8649 3.8698 12.8596 3.74083 12.8484 3.66715C12.8452 3.64589 12.8355 3.61427 12.7849 3.4777C12.7783 3.45985 12.7722 3.44244 12.7674 3.42887C12.7621 3.41415 12.7585 3.40319 12.7547 3.39274C12.7524 3.38648 12.7495 3.38143 12.7478 3.37711C12.7277 3.35544 12.7095 3.33466 12.6932 3.31657C12.6662 3.28681 12.6473 3.2663 12.6287 3.24626C12.5891 3.20363 12.5824 3.20079 12.5935 3.20915C12.502 3.14049 12.4339 3.08989 12.3553 3.0402C12.3243 3.02061 12.2917 2.99938 12.2703 2.98551C12.246 2.96981 12.2281 2.95868 12.2127 2.94938C12.1835 2.93182 12.1718 2.9265 12.1678 2.92497C12.1331 2.91185 12.0948 2.89739 12.0701 2.88786C12.0421 2.87708 12.0211 2.8689 12.0027 2.86247C11.9676 2.85017 11.9508 2.84651 11.9412 2.84489C11.9056 2.83885 11.8597 2.82968 11.8416 2.82633C11.817 2.82179 11.7965 2.81845 11.7752 2.81559C11.7351 2.81024 11.6723 2.80451 11.5652 2.80485C10.6369 2.80786 10.5439 2.818 10.4588 2.82926C10.2945 2.851 10.2102 2.85824 10.115 2.87516C10.0138 2.89316 9.96245 2.91043 9.80057 2.9484C9.76133 2.95761 9.71963 2.96632 9.69022 2.97282C9.65749 2.98005 9.63248 2.98597 9.61112 2.99137C9.56457 3.00316 9.56249 3.00738 9.57889 2.99919C9.46525 3.05596 9.31365 3.12427 9.2244 3.16715C9.10543 3.22432 9.03961 3.26498 9.00077 3.29411C8.89718 3.3718 8.82388 3.42469 8.74003 3.4904C8.707 3.5163 8.67535 3.54342 8.64042 3.57438C8.62568 3.58744 8.60308 3.60759 8.58378 3.62418C8.57331 3.63318 8.55908 3.64513 8.54374 3.65739C8.52975 3.66855 8.50611 3.68744 8.47635 3.70719C8.13122 3.93613 7.66531 3.84231 7.43631 3.49723C7.22173 3.17374 7.29108 2.7442 7.58475 2.50309L7.60917 2.48454C7.61666 2.47803 7.62625 2.4692 7.6453 2.45231C7.68389 2.41811 7.74429 2.36532 7.81522 2.30973C7.91514 2.23143 8.02462 2.15146 8.10135 2.09391C8.24998 1.98249 8.4126 1.89362 8.57499 1.81559C8.72677 1.74266 8.79627 1.7132 8.90799 1.65739C9.1216 1.55066 9.40681 1.5004 9.4578 1.48844C9.5318 1.47108 9.70012 1.42567 9.85233 1.3986C9.98904 1.37428 10.1731 1.35379 10.2625 1.34196C10.464 1.3153 10.6652 1.30775 11.5603 1.30485ZM2.88163 10.341C2.9499 10.3413 3.06723 10.3466 3.19901 10.3908L3.33378 10.4494L3.44217 10.5148C3.68126 10.6797 3.82358 10.9091 3.85819 10.9582C3.97387 11.1223 4.08644 11.3336 4.14237 11.5822C4.17155 11.712 4.18385 11.8798 4.19022 11.9875C4.19759 12.1122 4.20095 12.2407 4.20096 12.3283C4.20096 12.5584 4.09457 12.761 3.93143 12.8986C3.91303 12.9231 3.88176 12.9662 3.84256 13.0109L3.83475 13.0207L3.82596 13.0304C3.61497 13.2552 3.23922 13.4194 2.82303 13.3166C2.57417 13.2551 2.258 13.1127 2.05057 12.7912C2.0963 12.862 1.90821 12.6222 1.82987 12.3634C1.74489 12.0827 1.74577 11.7618 1.8201 11.382C1.83502 11.3058 1.86586 11.1232 1.92167 10.9738C1.97491 10.8313 2.15867 10.431 2.6453 10.3595C2.69395 10.3524 2.78305 10.3405 2.88163 10.341ZM9.94706 8.02067C9.95263 8.02035 9.96094 8.02037 9.96854 8.01969C9.97042 8.01953 9.97542 8.01763 9.98319 8.01676C9.96508 8.01809 9.95229 8.02045 9.94706 8.02067ZM2.80057 4.3068C2.95703 4.31635 3.21807 4.35947 3.4451 4.55192C3.5103 4.60723 3.73625 4.77979 3.87967 5.03434C3.98477 5.22103 4.02313 5.4331 4.03983 5.54118C4.06018 5.67293 4.0701 5.80718 4.0701 5.90641C4.07007 6.00283 4.04957 6.09421 4.01639 6.17887C3.98986 6.33778 3.93608 6.52196 3.81913 6.68961C3.80528 6.7095 3.72032 6.83961 3.616 6.9445C3.49412 7.06694 3.27915 7.22781 2.96659 7.24919C2.86144 7.25638 2.56577 7.27366 2.29178 7.10758C2.27313 7.09631 2.15329 7.02858 2.06815 6.96696C1.96586 6.89292 1.81292 6.7623 1.70975 6.55094C1.70975 6.55094 1.70823 6.54664 1.69999 6.53141C1.69333 6.51911 1.67907 6.49453 1.66581 6.46891C1.63685 6.41295 1.59949 6.33386 1.56717 6.23551C1.49893 6.02758 1.47411 5.79258 1.50858 5.51774C1.51121 5.49676 1.51319 5.47312 1.51639 5.42887C1.51903 5.39238 1.52319 5.32775 1.53202 5.26286C1.54788 5.14631 1.59424 4.87398 1.8201 4.6486L1.90311 4.57243C2.00101 4.49073 2.1441 4.39846 2.3328 4.35172L2.43729 4.32926C2.54744 4.30948 2.67209 4.299 2.80057 4.3068Z" fill="black"/>
</svg>
