<svg width="256" height="256" viewBox="0 0 256 256" fill="none" xmlns="http://www.w3.org/2000/svg">
    <defs>
        <mask id="hand-cutout" maskUnits="userSpaceOnUse">
            <rect width="256" height="256" fill="white"/>
            <path class="stopwatch-hand" d="M134.992 130.94C135.394 129.969 135.601 128.929 135.601 127.878L135.601 71.3182C135.601 70.2672 135.394 69.2265 134.992 68.2555C134.59 67.2845 134 66.4023 133.257 65.6591C132.514 64.9159 131.632 64.3264 130.661 63.9242C129.69 63.522 128.649 63.315 127.598 63.315C126.547 63.315 125.506 63.522 124.535 63.9242C123.564 64.3264 122.682 64.9159 121.939 65.6591C121.196 66.4023 120.606 67.2845 120.204 68.2555C119.802 69.2265 119.595 70.2672 119.595 71.3182L119.595 127.878C119.595 128.929 119.802 129.969 120.204 130.94C120.606 131.911 121.196 132.794 121.939 133.537C122.682 134.28 123.564 134.87 124.535 135.272C125.506 135.674 126.547 135.881 127.598 135.881C128.649 135.881 129.69 135.674 130.661 135.272C131.632 134.87 132.514 134.28 133.257 133.537C134 132.794 134.59 131.911 134.992 130.94Z" fill="black"/>
        </mask>
    </defs>
    <path d="M132.916 36.1891C113.929 36.1891 95.368 41.8194 79.5809 52.368C63.7938 62.9166 51.4892 77.9098 44.2232 95.4515C36.9572 112.993 35.0561 132.296 38.7603 150.918C42.4644 169.54 51.6076 186.645 65.0334 200.071C78.4592 213.497 95.5648 222.64 114.187 226.344C132.809 230.049 152.112 228.148 169.653 220.882C187.195 213.615 202.188 201.311 212.737 185.524C223.285 169.737 228.916 151.176 228.916 132.189C228.887 106.737 218.763 82.3362 200.766 64.339C182.769 46.3418 158.367 36.2182 132.916 36.1891ZM100.916 12.1891C100.916 10.0673 101.759 8.03251 103.259 6.53222C104.759 5.03193 106.794 4.18907 108.916 4.18907H156.916C159.037 4.18907 161.072 5.03193 162.573 6.53222C164.073 8.03251 164.916 10.0673 164.916 12.1891C164.916 14.3108 164.073 16.3456 162.573 17.8459C161.072 19.3462 159.037 20.1891 156.916 20.1891H108.916C106.794 20.1891 104.759 19.3462 103.259 17.8459C101.759 16.3456 100.916 14.3108 100.916 12.1891Z" fill="currentColor" mask="url(#hand-cutout)"/>
</svg>