<svg xmlns="http://www.w3.org/2000/svg" class="icon-1ihkOt" aria-hidden="false" width="16" height="16" viewBox="0 0 16 16"><path d="M10.5906 6.39993L9.19223 7.29993C8.99246 7.39993 8.89258 7.39993 8.69281 7.29993C8.59293 7.19993 8.39317 7.09993 8.29328 6.99993C7.89375 6.89993 7.5941 6.99993 7.29445 7.19993L6.79504 7.49993L4.29797 9.19993C3.69867 9.49993 2.99949 9.39993 2.69984 8.79993C2.30031 8.29993 2.50008 7.59993 2.99949 7.19993L5.99598 5.19993C6.79504 4.69993 7.79387 4.49993 8.69281 4.69993C9.49188 4.89993 10.0912 5.29993 10.5906 5.89993C10.7904 6.09993 10.6905 6.29993 10.5906 6.39993Z" fill="currentColor"></path><path d="M13.4871 7.79985C13.4871 8.19985 13.2874 8.59985 12.9877 8.79985L9.89135 10.7999C9.29206 11.1999 8.69276 11.3999 7.99358 11.3999C7.69393 11.3999 7.49417 11.3999 7.19452 11.2999C6.39545 11.0999 5.79616 10.6999 5.29674 10.0999C5.19686 9.89985 5.29674 9.69985 5.39663 9.59985L6.79499 8.69985C6.89487 8.59985 7.09463 8.59985 7.19452 8.69985C7.39428 8.79985 7.59405 8.89985 7.69393 8.99985C8.09346 8.99985 8.39311 8.99985 8.69276 8.79985L9.39194 8.39985L11.3896 6.99985L11.6892 6.79985C12.1887 6.49985 12.9877 6.59985 13.2874 7.09985C13.4871 7.39985 13.4871 7.59985 13.4871 7.79985Z" fill="currentColor"></path></svg>